<!-- Spritesheet -->
<svg xmlns="http://www.w3.org/2000/svg" style="display: none;">
    <!-- List Icon -->
    <symbol id="icon-list" viewBox="0 0 24 24" fill="none" stroke="currentColor"
        stroke-width="2" stroke-linecap="round" stroke-linejoin="round">
        <path stroke="none" d="M0 0h24v24H0z" fill="none" />
        <path d="M9 6l11 0" />
        <path d="M9 12l11 0" />
        <path d="M9 18l11 0" />
        <path d="M5 6l0 .01" />
        <path d="M5 12l0 .01" />
        <path d="M5 18l0 .01" />
    </symbol>

    <!-- Grid Dots Icon -->
    <symbol id="icon-grid-dots" viewBox="0 0 24 24" fill="none" stroke="currentColor"
        stroke-width="2" stroke-linecap="round" stroke-linejoin="round">
        <path stroke="none" d="M0 0h24v24H0z" fill="none" />
        <path d="M5 5m-1 0a1 1 0 1 0 2 0a1 1 0 1 0 -2 0" />
        <path d="M12 5m-1 0a1 1 0 1 0 2 0a1 1 0 1 0 -2 0" />
        <path d="M19 5m-1 0a1 1 0 1 0 2 0a1 1 0 1 0 -2 0" />
        <path d="M5 12m-1 0a1 1 0 1 0 2 0a1 1 0 1 0 -2 0" />
        <path d="M12 12m-1 0a1 1 0 1 0 2 0a1 1 0 1 0 -2 0" />
        <path d="M19 12m-1 0a1 1 0 1 0 2 0a1 1 0 1 0 -2 0" />
        <path d="M5 19m-1 0a1 1 0 1 0 2 0a1 1 0 1 0 -2 0" />
        <path d="M12 19m-1 0a1 1 0 1 0 2 0a1 1 0 1 0 -2 0" />
        <path d="M19 19m-1 0a1 1 0 1 0 2 0a1 1 0 1 0 -2 0" />
    </symbol>

    <!-- Heart Outline -->
    <symbol id="icon-heart-outline" viewBox="0 0 24 24" fill="none" stroke="currentColor"
        stroke-width="2" stroke-linecap="round" stroke-linejoin="round">
        <path stroke="none" d="M0 0h24v24H0z" fill="none" />
        <path d="M19.5 12.572l-7.5 7.428l-7.5 -7.428a5 5 0 1 1 7.5 -6.566a5 5 0 1 1 7.5 6.572" />
    </symbol>

    <!-- Heart Filled -->
    <symbol id="icon-heart-filled" viewBox="0 0 24 24" fill="currentColor">
        <path stroke="none" d="M0 0h24v24H0z" fill="none" />
        <path
            d="M6.979 3.074a6 6 0 0 1 4.988 1.425l.037 .033l.034 -.03a6 6 0 0 1 4.733 -1.44l.246 .036a6 6 0 0 1 3.364 10.008l-.18 .185l-.048 .041l-7.45 7.379a1 1 0 0 1 -1.313 .082l-.094 -.082l-7.493 -7.422a6 6 0 0 1 3.176 -10.215z" />
    </symbol>

    <!-- Book Icon -->
    <symbol id="icon-book" viewBox="0 0 24 24" fill="none" stroke="currentColor"
        stroke-width="2" stroke-linecap="round" stroke-linejoin="round">
        <path stroke="none" d="M0 0h24v24H0z" fill="none" />
        <path d="M3 19a9 9 0 0 1 9 0a9 9 0 0 1 9 0" />
        <path d="M3 6a9 9 0 0 1 9 0a9 9 0 0 1 9 0" />
        <path d="M3 6l0 13" />
        <path d="M12 6l0 13" />
        <path d="M21 6l0 13" />
    </symbol>

    <!-- Book Filled Icon -->
    <symbol id="icon-book-filled" viewBox="0 0 24 24" fill="currentColor">
        <path stroke="none" d="M0 0h24v24H0z" fill="none"/>
        <path d="M21.5 5.134a1 1 0 0 1 .493 .748l.007 .118v13a1 1 0 0 1 -1.5 .866a8 8 0 0 0 -7.5 -.266v-15.174a10 10 0 0 1 8.5 .708m-10.5 -.707l.001 15.174a8 8 0 0 0 -7.234 .117l-.327 .18l-.103 .044l-.049 .016l-.11 .026l-.061 .01l-.117 .006h-.042l-.11 -.012l-.077 -.014l-.108 -.032l-.126 -.056l-.095 -.056l-.089 -.067l-.06 -.056l-.073 -.082l-.064 -.089l-.022 -.036l-.032 -.06l-.044 -.103l-.016 -.049l-.026 -.11l-.01 -.061l-.004 -.049l-.002 -13.068a1 1 0 0 1 .5 -.866a10 10 0 0 1 8.5 -.707" />
    </symbol>

    <!-- Home Icon -->
    <symbol id="icon-home" viewBox="0 0 24 24" fill="none" stroke="currentColor"
        stroke-width="2" stroke-linecap="round" stroke-linejoin="round">
        <path stroke="none" d="M0 0h24v24H0z" fill="none" />
        <path d="M5 12l-2 0l9 -9l9 9l-2 0" />
        <path d="M5 12v7a2 2 0 0 0 2 2h10a2 2 0 0 0 2 -2v-7" />
        <path d="M9 21v-6a2 2 0 0 1 2 -2h2a2 2 0 0 1 2 2v6" />
    </symbol>
</svg>